<svg xmlns="http://www.w3.org/2000/svg" viewBox="0 0 64 64"><defs><style>.cls-1{fill:#000842;}.cls-2{fill:#f6ae2d;}.cls-3{fill:#fff;}</style></defs><title>Zeichenfläche 1</title><g id="Ebene_1" data-name="Ebene 1"><rect class="cls-1" width="64" height="64"/></g><g id="weather"><path class="cls-2" d="M42.41,26.81l1.53,3.74a1.07,1.07,0,0,0,1.56.51l3.44-2.12a1.22,1.22,0,0,1,1.83,1.32l-1,3.93a1.07,1.07,0,0,0,1,1.33l4,.3A1.22,1.22,0,0,1,55.5,38l-3.08,2.61a1.08,1.08,0,0,0,0,1.65l3.08,2.61A1.21,1.21,0,0,1,54.81,47l-4,.3a1.08,1.08,0,0,0-1,1.34l1,3.92a1.22,1.22,0,0,1-1.83,1.33L45.5,51.74a1.07,1.07,0,0,0-1.56.51L42.41,56a1.22,1.22,0,0,1-2.26,0l-1.53-3.74a1.08,1.08,0,0,0-1.57-.51l-3.43,2.13a1.22,1.22,0,0,1-1.83-1.33l1-3.92a1.08,1.08,0,0,0-1-1.34l-4-.3a1.22,1.22,0,0,1-.7-2.14l3.09-2.61a1.08,1.08,0,0,0,0-1.65L27.05,38a1.22,1.22,0,0,1,.7-2.15l4-.3a1.07,1.07,0,0,0,1-1.33l-1-3.93a1.22,1.22,0,0,1,1.83-1.32l3.43,2.12a1.08,1.08,0,0,0,1.57-.51l1.53-3.74a1.22,1.22,0,0,1,2.26,0Zm7,14.59a8.15,8.15,0,1,0-8.15,8.16A8.16,8.16,0,0,0,49.43,41.4Zm-1.92,0a6.24,6.24,0,1,1-6.23-6.23A6.24,6.24,0,0,1,47.51,41.4Z"/><path class="cls-3" d="M48.55,20.38c-5.38-1.57-9.5.49-10.72,7.77a.94.94,0,0,1-1.46.68c-.31-.18-4.5-3.39-8.84-1.36-3.4,1.58-4.16,4.76-4.64,7.64a.94.94,0,0,1-1.47.69c-6.35-3.74-10.56-2-12.84,3.21a.9.9,0,0,1-1.72,0C5,28.7,11.93,19.14,21.55,14.65S43,11,49.61,19a.9.9,0,0,1-1.06,1.35ZM26,30.31,31.31,41.8A2.62,2.62,0,0,1,26.56,44a2.63,2.63,0,0,0-4.76,2.22,7.87,7.87,0,0,0,14.27-6.65L30.72,28.12A5.83,5.83,0,0,0,26,30.31ZM23.42,12.46l-.62-1.33a2.62,2.62,0,0,0-4.75,2.22l.62,1.33A31.08,31.08,0,0,1,23.42,12.46Z"/></g></svg>